<svg width="12" height="13" viewBox="0 0 12 13" fill="none" xmlns="http://www.w3.org/2000/svg">
<path d="M9.44531 7.10547C9.44531 7.16016 9.36328 8.77344 11.1406 9.62109C10.8125 10.6328 9.66406 12.875 8.32422 12.875C7.55859 12.875 7.12109 12.3828 6.24609 12.3828C5.34375 12.3828 4.85156 12.875 4.16797 12.875C2.85547 12.9297 1.59766 10.4688 1.24219 9.45703C0.96875 8.69141 0.859375 7.95312 0.859375 7.24219C0.859375 4.80859 2.47266 3.63281 4.00391 3.60547C4.74219 3.60547 5.67188 4.125 6.08203 4.125C6.46484 4.125 7.53125 3.49609 8.51562 3.57812C9.52734 3.66016 10.293 4.04297 10.8125 4.78125C9.91016 5.35547 9.44531 6.09375 9.44531 7.10547ZM7.91406 2.62109C7.36719 3.25 6.71094 3.60547 6 3.55078C5.94531 2.8125 6.21875 2.12891 6.71094 1.58203C7.14844 1.08984 7.91406 0.679688 8.57031 0.625C8.57031 0.925781 8.65234 1.74609 7.91406 2.62109Z" fill="white"/>
</svg>
