<svg width="178" height="178" viewBox="0 0 178 178" fill="none" xmlns="http://www.w3.org/2000/svg">
<g clip-path="url(#clip0_156_3561)">
<path d="M111.403 16.6875V5.5625C111.403 4.08723 111.989 2.67239 113.032 1.62922C114.075 0.586048 115.49 0 116.966 0C118.441 0 119.856 0.586048 120.899 1.62922C121.942 2.67239 122.528 4.08723 122.528 5.5625V16.6875C122.528 18.1628 121.942 19.5776 120.899 20.6208C119.856 21.664 118.441 22.25 116.966 22.25C115.49 22.25 114.075 21.664 113.032 20.6208C111.989 19.5776 111.403 18.1628 111.403 16.6875ZM136.351 28.5078C137.223 29.0438 138.227 29.3256 139.25 29.3213C140.205 29.3228 141.144 29.0787 141.977 28.6123C142.81 28.1459 143.509 27.473 144.006 26.6583L149.569 17.5427C149.949 16.9182 150.203 16.2248 150.315 15.5023C150.427 14.7797 150.396 14.0421 150.224 13.3316C150.051 12.621 149.74 11.9515 149.308 11.3611C148.877 10.7707 148.333 10.2711 147.709 9.89082C147.084 9.51052 146.391 9.25695 145.668 9.1446C144.946 9.03225 144.208 9.06332 143.498 9.23604C142.787 9.40875 142.118 9.71973 141.527 10.1512C140.937 10.5827 140.437 11.1262 140.057 11.7508L134.494 20.8594C134.114 21.4834 133.86 22.1763 133.747 22.8985C133.634 23.6207 133.665 24.358 133.837 25.0684C134.01 25.7787 134.321 26.4481 134.752 27.0382C135.183 27.6284 135.727 28.1278 136.351 28.5078ZM169.385 37.2618C169.161 36.5656 168.802 35.9205 168.328 35.3633C167.855 34.8061 167.276 34.3477 166.625 34.0145C165.974 33.6812 165.264 33.4796 164.535 33.4212C163.806 33.3628 163.072 33.4487 162.376 33.674L151.905 37.0462C150.64 37.4507 149.561 38.2944 148.864 39.4249C148.167 40.5554 147.898 41.898 148.104 43.2099C148.311 44.5219 148.98 45.7166 149.991 46.5781C151.002 47.4396 152.287 47.911 153.615 47.907C154.196 47.9043 154.773 47.8128 155.326 47.6359L165.79 44.2636C166.49 44.0404 167.138 43.681 167.697 43.2062C168.257 42.7315 168.717 42.1506 169.051 41.4972C169.385 40.8437 169.587 40.1306 169.644 39.3989C169.702 38.6673 169.614 37.9315 169.385 37.234V37.2618ZM150.883 67.8486C156.774 78.0912 159.26 89.9399 157.983 101.687C156.706 113.433 151.731 124.471 143.777 133.208C143.54 134.411 143.276 135.614 142.949 136.81C140.082 147.446 134.127 156.993 125.837 164.248C117.547 171.502 107.294 176.137 96.3712 177.569C85.4488 179 74.3472 177.163 64.4681 172.29C54.5889 167.416 46.375 159.725 40.8636 150.188L16.3399 107.773C14.8504 105.193 14.0218 102.284 13.9279 99.3059C13.834 96.3277 14.4777 93.3725 15.8017 90.7032C17.1257 88.0338 19.089 85.7331 21.5168 84.0058C23.9447 82.2784 26.7619 81.1779 29.7178 80.8023L27.6318 77.1866C26.1442 74.6082 25.3164 71.7023 25.2218 68.727C25.1272 65.7516 25.7688 62.799 27.0896 60.1313C28.4104 57.4635 30.3695 55.1632 32.793 53.4346C35.2165 51.706 38.0294 50.6026 40.9818 50.2224L40.4951 49.3672C38.433 45.816 37.6414 41.6685 38.2506 37.6075C38.8598 33.5464 40.8335 29.8137 43.8467 27.0239C46.86 24.234 50.7333 22.5531 54.8292 22.2579C58.9251 21.9627 62.9994 23.0708 66.3816 25.3998C68.0139 22.7114 70.3178 20.4941 73.0668 18.9661C75.8158 17.438 78.9151 16.6519 82.0601 16.6848C85.205 16.7178 88.2873 17.5688 91.0036 19.1541C93.72 20.7395 95.9769 23.0045 97.5524 25.7266L106.077 40.4672C107.89 38.1026 110.258 36.2214 112.971 34.99C115.685 33.7587 118.66 33.2152 121.633 33.4077C124.607 33.6002 127.487 34.5228 130.019 36.0937C132.551 37.6646 134.656 39.8354 136.149 42.4141L150.883 67.8486ZM75.8378 38.2422L93.2207 68.2588C94.6704 66.3615 96.4817 64.7702 98.5499 63.5768C100.618 62.3833 102.902 61.6115 105.27 61.3057L87.9015 31.2891C86.9795 29.6893 85.4597 28.5214 83.6765 28.0422C81.8934 27.563 79.9929 27.8117 78.3931 28.7338C76.7934 29.6558 75.6254 31.1756 75.1462 32.9588C74.667 34.7419 74.9158 36.6424 75.8378 38.2422ZM50.146 43.8047L54.6378 51.5713C56.0881 49.6762 57.8986 48.0863 59.9653 46.893C62.032 45.6998 64.3142 44.9267 66.6806 44.6182L62.1958 36.8516C61.7393 36.0604 61.1313 35.3668 60.4068 34.8106C59.6822 34.2543 58.8551 33.8462 57.9729 33.6096C57.0906 33.373 56.1703 33.3124 55.2646 33.4314C54.3589 33.5505 53.4856 33.8467 52.6944 34.3032C51.9032 34.7598 51.2096 35.3677 50.6534 36.0923C50.0971 36.8169 49.689 37.6439 49.4524 38.5262C49.2158 39.4085 49.1552 40.3287 49.2742 41.2344C49.3932 42.1401 49.6895 43.0135 50.146 43.8047ZM127.701 100.125L113.642 75.7891C112.789 74.1534 111.321 72.9235 109.562 72.3699C107.802 71.8164 105.894 71.9846 104.259 72.8375C102.623 73.6903 101.393 75.1581 100.84 76.9178C100.286 78.6775 100.454 80.585 101.307 82.2207L110.068 97.3438C110.806 98.6226 111.005 100.142 110.622 101.568C110.24 102.994 109.306 104.209 108.027 104.947C106.748 105.685 105.229 105.884 103.803 105.501C102.377 105.119 101.162 104.185 100.424 102.906L75.0452 59.1016C74.1231 57.5018 72.6034 56.3339 70.8202 55.8547C69.037 55.3755 67.1365 55.6242 65.5368 56.5463C63.937 57.4683 62.7691 58.9881 62.2899 60.7713C61.8107 62.5544 62.0595 64.4549 62.9815 66.0547L81.0944 97.3438C81.832 98.6226 82.0314 100.142 81.6487 101.568C81.266 102.994 80.3325 104.209 79.0537 104.947C77.7748 105.685 76.2553 105.884 74.8294 105.501C73.4035 105.119 72.188 104.185 71.4504 102.906L49.3673 64.6641C48.4452 63.0662 46.9262 61.9 45.1443 61.4221C43.3625 60.9442 41.4637 61.1937 39.8658 62.1157C38.2679 63.0378 37.1018 64.5568 36.6239 66.3387C36.146 68.1206 36.3955 70.0193 37.3175 71.6172L61.8064 114.031C62.5441 115.312 62.7427 116.833 62.3587 118.26C61.9747 119.688 61.0395 120.904 59.7587 121.641C58.478 122.379 56.9567 122.578 55.5295 122.194C54.1024 121.81 52.8862 120.874 52.1485 119.594L38.0476 95.2578C37.1256 93.659 35.6062 92.4919 33.8236 92.0134C32.0411 91.5348 30.1415 91.784 28.5427 92.706C26.9439 93.6281 25.7768 95.1475 25.2982 96.93C24.8197 98.7125 25.0688 100.612 25.9909 102.211L50.5146 144.625C54.926 152.251 61.4981 158.4 69.4012 162.294C77.3043 166.188 86.184 167.654 94.9193 166.505C103.654 165.356 111.854 161.645 118.481 155.84C125.109 150.035 129.868 142.397 132.158 133.889C133.687 128.247 134.08 122.356 133.315 116.56C132.55 110.764 130.642 105.178 127.701 100.125ZM141.197 73.4111L126.498 47.9766C126.042 47.1831 125.433 46.4873 124.708 45.9289C123.982 45.3706 123.154 44.9605 122.27 44.7223C120.485 44.2411 118.582 44.4888 116.979 45.4109C116.186 45.8674 115.49 46.4758 114.932 47.2012C114.373 47.9267 113.963 48.755 113.725 49.6389C113.244 51.424 113.492 53.3272 114.414 54.9297L137.359 94.5973C140.54 100.082 142.762 106.068 143.93 112.3C146.444 106.033 147.504 99.2775 147.031 92.5416C146.558 85.8057 144.563 79.2649 141.197 73.4111Z" fill="#F9F8EF"/>
</g>
<defs>
<clipPath id="clip0_156_3561">
<rect width="178" height="178" fill="white"/>
</clipPath>
</defs>
</svg>
