<svg width="15" height="15" viewBox="0 0 15 15" fill="none" xmlns="http://www.w3.org/2000/svg">
<path d="M13.3789 1.35156L13.8984 1.87109C14.5 2.47266 14.5 3.42969 13.8984 4.03125L13.0781 4.85156L10.3984 2.17188L11.2188 1.35156C11.8203 0.75 12.7773 0.75 13.3789 1.35156ZM5.20312 7.36719L9.76953 2.80078L12.4492 5.48047L7.88281 10.0469C7.71875 10.2109 7.5 10.3477 7.28125 10.4297L4.84766 11.2227C4.62891 11.3047 4.35547 11.25 4.19141 11.0586C4 10.8945 3.94531 10.6211 4.02734 10.4023L4.82031 7.96875C4.90234 7.75 5.03906 7.53125 5.20312 7.36719ZM3.125 2.5H5.75C6.21484 2.5 6.625 2.91016 6.625 3.375C6.625 3.86719 6.21484 4.25 5.75 4.25H3.125C2.63281 4.25 2.25 4.66016 2.25 5.125V12.125C2.25 12.6172 2.63281 13 3.125 13H10.125C10.5898 13 11 12.6172 11 12.125V9.5C11 9.03516 11.3828 8.625 11.875 8.625C12.3398 8.625 12.75 9.03516 12.75 9.5V12.125C12.75 13.5742 11.5742 14.75 10.125 14.75H3.125C1.67578 14.75 0.5 13.5742 0.5 12.125V5.125C0.5 3.67578 1.67578 2.5 3.125 2.5Z" fill="white"/>
</svg>
