<svg width="24" height="24" viewBox="0 0 24 24" fill="none" xmlns="http://www.w3.org/2000/svg">
<path fill-rule="evenodd" clip-rule="evenodd" d="M12.0001 1.40332C9.18967 1.40332 6.49434 2.51977 4.50705 4.50705C2.51977 6.49434 1.40332 9.18967 1.40332 12.0001C1.40332 14.8106 2.51977 17.5059 4.50705 19.4932C6.49434 21.4805 9.18967 22.5969 12.0001 22.5969C14.8106 22.5969 17.5059 21.4805 19.4932 19.4932C21.4805 17.5059 22.5969 14.8106 22.5969 12.0001C22.5969 9.18967 21.4805 6.49434 19.4932 4.50705C17.5059 2.51977 14.8106 1.40332 12.0001 1.40332ZM2.92332 12.0001C2.92332 9.5928 3.87962 7.28408 5.58185 5.58185C7.28408 3.87962 9.5928 2.92332 12.0001 2.92332C14.4074 2.92332 16.7162 3.87962 18.4184 5.58185C20.1206 7.28408 21.0769 9.5928 21.0769 12.0001C21.0769 14.4074 20.1206 16.7162 18.4184 18.4184C16.7162 20.1206 14.4074 21.0769 12.0001 21.0769C9.5928 21.0769 7.28408 20.1206 5.58185 18.4184C3.87962 16.7162 2.92332 14.4074 2.92332 12.0001ZM8.60012 10.9601C8.97142 10.9601 9.32752 10.8126 9.59007 10.5501C9.85262 10.2875 10.0001 9.93142 10.0001 9.56012C10.0001 9.18882 9.85262 8.83272 9.59007 8.57017C9.32752 8.30762 8.97142 8.16012 8.60012 8.16012C8.22882 8.16012 7.87272 8.30762 7.61017 8.57017C7.34762 8.83272 7.20012 9.18882 7.20012 9.56012C7.20012 9.93142 7.34762 10.2875 7.61017 10.5501C7.87272 10.8126 8.22882 10.9601 8.60012 10.9601ZM16.8001 9.56012C16.8001 9.93142 16.6526 10.2875 16.3901 10.5501C16.1275 10.8126 15.7714 10.9601 15.4001 10.9601C15.0288 10.9601 14.6727 10.8126 14.4102 10.5501C14.1476 10.2875 14.0001 9.93142 14.0001 9.56012C14.0001 9.18882 14.1476 8.83272 14.4102 8.57017C14.6727 8.30762 15.0288 8.16012 15.4001 8.16012C15.7714 8.16012 16.1275 8.30762 16.3901 8.57017C16.6526 8.83272 16.8001 9.18882 16.8001 9.56012Z" fill="#1D3557"/>
<line x1="8.75" y1="15.25" x2="15.25" y2="15.25" stroke="#1D3557" stroke-width="1.5" stroke-linecap="round"/>
</svg>
