<svg width="24" height="24" viewBox="0 0 24 24" fill="none" xmlns="http://www.w3.org/2000/svg">
<path fill-rule="evenodd" clip-rule="evenodd" d="M12.0001 1.40332C9.18967 1.40332 6.49434 2.51977 4.50705 4.50705C2.51977 6.49434 1.40332 9.18967 1.40332 12.0001C1.40332 14.8106 2.51977 17.5059 4.50705 19.4932C6.49434 21.4805 9.18967 22.5969 12.0001 22.5969C14.8106 22.5969 17.5059 21.4805 19.4932 19.4932C21.4805 17.5059 22.5969 14.8106 22.5969 12.0001C22.5969 9.18967 21.4805 6.49434 19.4932 4.50705C17.5059 2.51977 14.8106 1.40332 12.0001 1.40332ZM2.92332 12.0001C2.92332 9.5928 3.87962 7.28408 5.58185 5.58185C7.28408 3.87962 9.5928 2.92332 12.0001 2.92332C14.4074 2.92332 16.7162 3.87962 18.4184 5.58185C20.1206 7.28408 21.0769 9.5928 21.0769 12.0001C21.0769 14.4074 20.1206 16.7162 18.4184 18.4184C16.7162 20.1206 14.4074 21.0769 12.0001 21.0769C9.5928 21.0769 7.28408 20.1206 5.58185 18.4184C3.87962 16.7162 2.92332 14.4074 2.92332 12.0001ZM8.60012 10.9601C8.97142 10.9601 9.32752 10.8126 9.59007 10.5501C9.85262 10.2875 10.0001 9.93142 10.0001 9.56012C10.0001 9.18882 9.85262 8.83272 9.59007 8.57017C9.32752 8.30762 8.97142 8.16012 8.60012 8.16012C8.22882 8.16012 7.87272 8.30762 7.61017 8.57017C7.34762 8.83272 7.20012 9.18882 7.20012 9.56012C7.20012 9.93142 7.34762 10.2875 7.61017 10.5501C7.87272 10.8126 8.22882 10.9601 8.60012 10.9601ZM16.8001 9.56012C16.8001 9.93142 16.6526 10.2875 16.3901 10.5501C16.1275 10.8126 15.7714 10.9601 15.4001 10.9601C15.0288 10.9601 14.6727 10.8126 14.4102 10.5501C14.1476 10.2875 14.0001 9.93142 14.0001 9.56012C14.0001 9.18882 14.1476 8.83272 14.4102 8.57017C14.6727 8.30762 15.0288 8.16012 15.4001 8.16012C15.7714 8.16012 16.1275 8.30762 16.3901 8.57017C16.6526 8.83272 16.8001 9.18882 16.8001 9.56012Z" fill="#1D3557"/>
<path d="M16.1464 17.8809C16.0576 17.8222 15.9815 17.7464 15.9224 17.6579C15.4805 17.0222 14.8912 16.503 14.2049 16.1446C13.5186 15.7863 12.7558 15.5995 11.9816 15.6003C11.2074 15.5995 10.4445 15.7863 9.75821 16.1446C9.07193 16.503 8.48264 17.0222 8.04076 17.6579C7.91751 17.8271 7.73284 17.9413 7.52638 17.9759C7.31991 18.0105 7.1081 17.9628 6.9364 17.843C6.7647 17.7233 6.64679 17.541 6.60797 17.3352C6.56915 17.1295 6.61252 16.9168 6.72876 16.7427C7.88556 15.0867 9.80556 14.0003 11.9816 14.0003C13.0134 13.9996 14.0301 14.2487 14.9448 14.7262C15.8596 15.2038 16.6451 15.8956 17.2344 16.7427C17.297 16.8287 17.3419 16.9264 17.3663 17.03C17.3908 17.1336 17.3943 17.241 17.3767 17.346C17.3591 17.4509 17.3207 17.5513 17.2638 17.6413C17.2069 17.7312 17.1327 17.8089 17.0454 17.8698C16.9581 17.9307 16.8595 17.9736 16.7555 17.9959C16.6514 18.0182 16.5439 18.0195 16.4394 17.9998C16.3348 17.9801 16.2352 17.9397 16.1464 17.8809Z" fill="#1D3557"/>
</svg>
