<svg width="24" height="24" viewBox="0 0 24 24" fill="none" xmlns="http://www.w3.org/2000/svg">
<path d="M22 18.6052C22 18.8041 21.921 18.9949 21.7803 19.1355C21.6397 19.2762 21.4489 19.3552 21.25 19.3552H16.15C15.983 19.9781 15.6151 20.5284 15.1034 20.9209C14.5918 21.3135 13.9649 21.5262 13.32 21.5262C12.6751 21.5262 12.0482 21.3135 11.5366 20.9209C11.0249 20.5284 10.657 19.9781 10.49 19.3552H2.75C2.55109 19.3552 2.36032 19.2762 2.21967 19.1355C2.07902 18.9949 2 18.8041 2 18.6052C2 18.4063 2.07902 18.2155 2.21967 18.0748C2.36032 17.9342 2.55109 17.8552 2.75 17.8552H10.49C10.657 17.2323 11.0249 16.6819 11.5366 16.2894C12.0482 15.8969 12.6751 15.6841 13.32 15.6841C13.9649 15.6841 14.5918 15.8969 15.1034 16.2894C15.6151 16.6819 15.983 17.2323 16.15 17.8552H21.25C21.4489 17.8552 21.6397 17.9342 21.7803 18.0748C21.921 18.2155 22 18.4063 22 18.6052ZM22 5.39517C22 5.59409 21.921 5.78485 21.7803 5.9255C21.6397 6.06616 21.4489 6.14517 21.25 6.14517H18.8C18.633 6.76805 18.2651 7.31842 17.7534 7.71094C17.2418 8.10347 16.6149 8.31623 15.97 8.31623C15.3251 8.31623 14.6982 8.10347 14.1866 7.71094C13.6749 7.31842 13.307 6.76805 13.14 6.14517H2.75C2.65151 6.14517 2.55398 6.12578 2.46299 6.08808C2.37199 6.05039 2.28931 5.99515 2.21967 5.9255C2.15003 5.85586 2.09478 5.77318 2.05709 5.68219C2.0194 5.59119 2 5.49367 2 5.39517C2 5.29668 2.0194 5.19916 2.05709 5.10816C2.09478 5.01717 2.15003 4.93449 2.21967 4.86484C2.28931 4.7952 2.37199 4.73996 2.46299 4.70226C2.55398 4.66457 2.65151 4.64517 2.75 4.64517H13.14C13.307 4.0223 13.6749 3.47193 14.1866 3.0794C14.6982 2.68688 15.3251 2.47412 15.97 2.47412C16.6149 2.47412 17.2418 2.68688 17.7534 3.0794C18.2651 3.47193 18.633 4.0223 18.8 4.64517H21.25C21.3489 4.64383 21.447 4.66231 21.5386 4.69952C21.6302 4.73674 21.7134 4.79193 21.7833 4.86185C21.8532 4.93176 21.9084 5.01498 21.9457 5.10658C21.9829 5.19818 22.0013 5.29631 22 5.39517ZM22 11.9952C22.0013 12.094 21.9829 12.1922 21.9457 12.2838C21.9084 12.3754 21.8532 12.4586 21.7833 12.5285C21.7134 12.5984 21.6302 12.6536 21.5386 12.6908C21.447 12.728 21.3489 12.7465 21.25 12.7452H9.55C9.38296 13.3681 9.01509 13.9184 8.50342 14.3109C7.99176 14.7035 7.36489 14.9162 6.72 14.9162C6.07511 14.9162 5.44824 14.7035 4.93658 14.3109C4.42491 13.9184 4.05704 13.3681 3.89 12.7452H2.75C2.55109 12.7452 2.36032 12.6662 2.21967 12.5255C2.07902 12.3849 2 12.1941 2 11.9952C2 11.7963 2.07902 11.6055 2.21967 11.4648C2.36032 11.3242 2.55109 11.2452 2.75 11.2452H3.89C4.05704 10.6223 4.42491 10.0719 4.93658 9.6794C5.44824 9.28688 6.07511 9.07412 6.72 9.07412C7.36489 9.07412 7.99176 9.28688 8.50342 9.6794C9.01509 10.0719 9.38296 10.6223 9.55 11.2452H21.25C21.4489 11.2452 21.6397 11.3242 21.7803 11.4648C21.921 11.6055 22 11.7963 22 11.9952Z" fill="#E63946"/>
</svg>
