<svg width="156" height="99" viewBox="0 0 156 99" fill="none" xmlns="http://www.w3.org/2000/svg">
<path d="M35.0174 46.7177C27.6471 24.427 42.9605 6.07124 58.881 1.53705C73.0719 -2.50167 95.9504 5.18975 101.328 25.7636C101.923 26.0517 102.193 25.4986 102.565 25.2393C109.048 20.6417 116.595 20.2673 122.866 24.2311C129.32 28.3159 132.493 35.4081 130.93 43.2609C130.403 45.8938 131.061 46.2971 133.478 46.6947C143.763 48.3943 150.492 54.9392 154.049 64.2956C157.622 73.7097 154.289 82.1271 148.058 89.4959C143.208 95.2342 137.246 98.4375 129.509 98.4087C95.8874 98.2819 62.2598 98.2301 28.6378 98.3453C20.7807 98.3741 14.3896 95.7815 8.47953 90.5732C-1.50226 81.7756 -1.46217 64.2841 7.8324 54.6914C14.6816 47.6222 22.8423 44.4765 32.6809 46.4584C33.4311 46.6082 34.1871 47.1095 35.0174 46.7119V46.7177Z" fill="white"/>
<path d="M98.161 57.3244C102.846 54.9276 106.98 52.8017 111.126 50.693C113.973 49.2469 114.419 49.5004 114.545 52.6692C114.792 58.6898 114.952 64.7162 115.244 70.7368C115.359 73.0932 114.614 73.871 112.22 73.2834C108.578 72.3846 104.821 71.9294 101.208 70.9442C98.4359 70.1895 97.8231 71.1401 98.1324 73.6694C98.2927 74.9772 98.2068 76.3254 98.161 77.6505C98.0465 80.9402 96.5174 82.5822 93.2646 82.5995C81.4846 82.6456 69.6989 82.6456 57.9189 82.588C54.8608 82.5707 53.1084 80.9114 53.0797 77.8636C52.9938 68.1557 53.0053 58.4478 53.0912 48.7457C53.1141 46.0206 54.9753 44.2 57.8215 44.1769C69.7046 44.0963 81.5877 44.0847 93.4708 44.1769C96.4945 44.2 98.0579 46.0206 98.1438 49.0856C98.2183 51.6264 98.161 54.1729 98.161 57.3301V57.3244Z" fill="#FAE298"/>
<path d="M85.373 64.4973C85.4188 70.1146 80.929 74.6661 75.3683 74.643C69.9393 74.6142 65.5526 70.2126 65.4495 64.6932C65.3522 59.1738 69.945 54.5301 75.4828 54.5532C80.9118 54.5704 85.3272 59.0125 85.373 64.4973Z" fill="#ED1C24"/>
</svg>
