<svg width="28" height="26" viewBox="0 0 28 26" fill="none" xmlns="http://www.w3.org/2000/svg">
<rect width="28" height="26" rx="4" fill="#E63946"/>
<g clip-path="url(#clip0_156_3918)">
<path fill-rule="evenodd" clip-rule="evenodd" d="M17 14.5C17.9946 14.5 18.9484 14.8951 19.6517 15.5983C20.3549 16.3016 20.75 17.2554 20.75 18.25V19.75C20.75 19.9489 20.671 20.1397 20.5303 20.2803C20.3897 20.421 20.1989 20.5 20 20.5C19.8011 20.5 19.6103 20.421 19.4697 20.2803C19.329 20.1397 19.25 19.9489 19.25 19.75V18.25C19.25 17.6533 19.0129 17.081 18.591 16.659C18.169 16.2371 17.5967 16 17 16H11C10.4033 16 9.83097 16.2371 9.40901 16.659C8.98705 17.081 8.75 17.6533 8.75 18.25V19.75C8.75 19.9489 8.67098 20.1397 8.53033 20.2803C8.38968 20.421 8.19891 20.5 8 20.5C7.80109 20.5 7.61032 20.421 7.46967 20.2803C7.32902 20.1397 7.25 19.9489 7.25 19.75V18.25C7.25 17.2554 7.64509 16.3016 8.34835 15.5983C9.05161 14.8951 10.0054 14.5 11 14.5H17ZM21.0605 10.8108C21.1952 10.6748 21.3767 10.5955 21.5679 10.589C21.7591 10.5825 21.9456 10.6493 22.0892 10.7758C22.2327 10.9024 22.3225 11.0789 22.3402 11.2695C22.3578 11.46 22.3019 11.6501 22.184 11.8007L22.121 11.872L20 13.993C19.8709 14.1221 19.699 14.1997 19.5168 14.2112C19.3345 14.2226 19.1543 14.1672 19.01 14.0553L18.9395 13.993L17.879 12.9325C17.7431 12.7978 17.6637 12.6163 17.6572 12.4251C17.6507 12.2339 17.7176 12.0474 17.8441 11.9038C17.9706 11.7603 18.1472 11.6705 18.3377 11.6528C18.5282 11.6352 18.7183 11.6911 18.869 11.809L18.9395 11.8713L19.4697 12.4023L21.0605 10.8108ZM14 5.5C14.9946 5.5 15.9484 5.89509 16.6517 6.59835C17.3549 7.30161 17.75 8.25544 17.75 9.25C17.75 10.2446 17.3549 11.1984 16.6517 11.9017C15.9484 12.6049 14.9946 13 14 13C13.0054 13 12.0516 12.6049 11.3483 11.9017C10.6451 11.1984 10.25 10.2446 10.25 9.25C10.25 8.25544 10.6451 7.30161 11.3483 6.59835C12.0516 5.89509 13.0054 5.5 14 5.5ZM14 7C13.7045 7 13.4119 7.0582 13.139 7.17127C12.866 7.28434 12.6179 7.45008 12.409 7.65901C12.2001 7.86794 12.0343 8.11598 11.9213 8.38896C11.8082 8.66194 11.75 8.95453 11.75 9.25C11.75 9.54547 11.8082 9.83806 11.9213 10.111C12.0343 10.384 12.2001 10.6321 12.409 10.841C12.6179 11.0499 12.866 11.2157 13.139 11.3287C13.4119 11.4418 13.7045 11.5 14 11.5C14.5967 11.5 15.169 11.2629 15.591 10.841C16.0129 10.419 16.25 9.84674 16.25 9.25C16.25 8.65326 16.0129 8.08097 15.591 7.65901C15.169 7.23705 14.5967 7 14 7Z" fill="#F9F8EF"/>
</g>
<defs>
<clipPath id="clip0_156_3918">
<rect width="18" height="18" fill="white" transform="translate(5 4)"/>
</clipPath>
</defs>
</svg>
