<svg width="24" height="24" viewBox="0 0 24 24" fill="none" xmlns="http://www.w3.org/2000/svg">
<path d="M12.0051 20.4173C12.4067 20.4173 12.9291 18.8101 12.9291 15.8371V10.8816C13.7435 10.6741 14.4653 10.2009 14.9802 9.53684C15.4951 8.87278 15.7737 8.05588 15.7719 7.21557C15.7719 5.13614 14.0944 3.42871 12.0047 3.42871C9.90558 3.42871 8.22815 5.13614 8.22815 7.21557C8.22815 8.97314 9.43372 10.4599 11.061 10.8816V15.8371C11.061 18.8003 11.5933 20.4173 12.0051 20.4173ZM10.92 7.42643C10.2373 7.42643 9.63429 6.82385 9.63429 6.12057C9.63429 5.42757 10.2373 4.83485 10.92 4.83485C11.6336 4.83485 12.2057 5.42757 12.2057 6.12057C12.2057 6.82343 11.6336 7.42643 10.92 7.42643Z" fill="#E63946"/>
</svg>
