<svg width="114" height="113" viewBox="0 0 114 113" fill="none" xmlns="http://www.w3.org/2000/svg">
<rect x="0.621826" y="0.060791" width="112.659" height="112.659" rx="56.3293" fill="white" fill-opacity="0.2"/>
<path d="M82.539 78.2672C83.5725 79.3007 83.5725 80.8509 82.539 81.781C82.1256 82.2978 81.5056 82.5045 80.8855 82.5045C80.162 82.5045 79.5419 82.2978 79.0252 81.781L65.1764 67.9323C61.4558 70.9294 56.8051 72.583 51.8444 72.583C40.0626 72.583 30.4511 62.9715 30.4511 51.0864C30.4511 39.3046 39.9592 29.5898 51.8444 29.5898C63.6262 29.5898 73.341 39.3046 73.341 51.0864C73.341 56.1505 71.6874 60.8012 68.6903 64.4184L82.539 78.2672ZM35.4119 51.0864C35.4119 60.2844 42.7496 67.6222 51.9477 67.6222C61.0424 67.6222 68.4836 60.2844 68.4836 51.0864C68.4836 41.9916 61.0424 34.5505 51.9477 34.5505C42.7496 34.5505 35.4119 41.9916 35.4119 51.0864Z" fill="white"/>
</svg>
