<svg width="180" height="180" viewBox="0 0 180 180" fill="none" xmlns="http://www.w3.org/2000/svg">
<path fill-rule="evenodd" clip-rule="evenodd" d="M137.235 42.6227C134.385 43.1327 130.365 44.4527 123.915 46.5977L75.2252 62.8352C69.0152 64.9052 64.6352 66.3677 61.4852 67.5977C60.329 68.0335 59.1973 68.5317 58.0952 69.0902C57.4502 69.4277 57.2252 69.6152 57.2102 69.6152C56.4878 70.3145 55.9134 71.1519 55.5211 72.0776C55.1288 73.0034 54.9266 73.9985 54.9266 75.0039C54.9266 76.0094 55.1288 77.0045 55.5211 77.9303C55.9134 78.856 56.4878 79.6934 57.2102 80.3927C57.4876 80.5979 57.7839 80.7763 58.0952 80.9252C58.8452 81.3227 59.9327 81.8102 61.4852 82.4252C64.6352 83.6477 69.0152 85.1102 75.2252 87.1802L75.6452 87.3227C77.6927 87.9977 79.4927 88.5977 81.1502 89.4752C85.1458 91.5877 88.4127 94.8545 90.5252 98.8502C91.4027 100.5 92.0027 102.3 92.6777 104.355L92.8277 104.775C94.8902 110.985 96.3527 115.365 97.5827 118.515C98.0148 119.673 98.5131 120.805 99.0752 121.905C99.4127 122.55 99.6002 122.775 99.6002 122.79C100.299 123.513 101.137 124.087 102.063 124.479C102.988 124.872 103.983 125.074 104.989 125.074C105.994 125.074 106.989 124.872 107.915 124.479C108.841 124.087 109.678 123.513 110.378 122.79C110.583 122.513 110.761 122.216 110.91 121.905C111.308 121.155 111.795 120.068 112.41 118.508C113.633 115.358 115.095 110.985 117.165 104.783L133.388 56.1002C135.54 49.6502 136.86 45.6152 137.363 42.7727L137.4 42.6002C137.343 42.61 137.285 42.62 137.228 42.6302M134.603 27.8627C138.728 27.1277 144.39 26.9102 148.74 31.2602C153.09 35.6102 152.865 41.2652 152.138 45.3977C151.418 49.4627 149.715 54.5552 147.803 60.3002L147.623 60.8402L131.393 109.515L131.318 109.74C129.338 115.68 127.763 120.42 126.375 123.96C125.078 127.298 123.54 130.748 121.215 133.163C119.116 135.347 116.597 137.085 113.809 138.272C111.021 139.46 108.023 140.072 104.993 140.072C101.963 140.072 98.9641 139.46 96.1764 138.272C93.3888 137.085 90.8697 135.347 88.7702 133.163C86.4452 130.748 84.9077 127.298 83.6102 123.96C82.2227 120.42 80.6477 115.68 78.6602 109.733L78.5852 109.523C77.6852 106.815 77.4827 106.275 77.2652 105.863C76.5608 104.53 75.4709 103.44 74.1377 102.735C73.7252 102.51 73.1852 102.315 70.4777 101.408L70.2677 101.333C64.3202 99.3527 59.5802 97.7777 56.0327 96.3902C52.7027 95.0927 49.2527 93.5552 46.8377 91.2302C44.6531 89.1307 42.9151 86.6115 41.7279 83.8239C40.5407 81.0363 39.9287 78.0376 39.9287 75.0077C39.9287 71.9778 40.5407 68.9791 41.7279 66.1915C42.9151 63.4038 44.6531 60.8847 46.8377 58.7852C49.2527 56.4602 52.7027 54.9227 56.0327 53.6252C60.74 51.8687 65.4862 50.2182 70.2677 48.6752L70.4777 48.6002L119.16 32.3777L119.7 32.1977C125.445 30.2852 130.538 28.5827 134.603 27.8627Z" fill="#F9F8EF"/>
</svg>
